<?xml version="1.0" standalone="no"?><!DOCTYPE svg PUBLIC "-//W3C//DTD SVG 1.1//EN" "http://www.w3.org/Graphics/SVG/1.1/DTD/svg11.dtd"><svg t="1602729095830" class="icon" viewBox="0 0 1024 1024" version="1.1" xmlns="http://www.w3.org/2000/svg" p-id="13636" xmlns:xlink="http://www.w3.org/1999/xlink" width="250" height="250"><defs><style type="text/css"></style></defs><path d="M704.2 732.9c-6.9 0-13.8-2.6-19.1-7.9L295.2 335.1c-10.5-10.5-10.5-27.6 0-38.2 10.5-10.5 27.6-10.5 38.1 0l389.9 389.9c10.5 10.5 10.5 27.6 0 38.1-5.2 5.4-12.1 8-19 8z" p-id="13637" fill="#bfbfbf"></path><path d="M314.3 732.9c-6.9 0-13.8-2.6-19.1-7.9-10.5-10.5-10.5-27.6 0-38.1L685.1 297c10.5-10.5 27.6-10.5 38.1 0s10.5 27.6 0 38.2L333.3 725c-5.2 5.3-12.1 7.9-19 7.9z" p-id="13638" fill="#bfbfbf"></path><path d="M509.2 959.6c-246.9 0-447.8-200.9-447.8-447.8S262.3 64 509.2 64 957 264.8 957 511.8c0 246.9-200.8 447.8-447.8 447.8z m0-841.7c-217.2 0-393.9 176.7-393.9 393.9S292 905.7 509.2 905.7 903.1 729 903.1 511.8 726.4 117.9 509.2 117.9z" p-id="13639" fill="#bfbfbf"></path></svg>