<?xml version="1.0" standalone="no"?><!DOCTYPE svg PUBLIC "-//W3C//DTD SVG 1.1//EN" "http://www.w3.org/Graphics/SVG/1.1/DTD/svg11.dtd"><svg t="1602556514267" class="icon" viewBox="0 0 1024 1024" version="1.1" xmlns="http://www.w3.org/2000/svg" p-id="10034" xmlns:xlink="http://www.w3.org/1999/xlink" width="250" height="250"><defs><style type="text/css"></style></defs><path d="M902.78189056 618.40666169H119.66539435c-23.97575054 0-43.56736227-19.61444693-43.56736342-43.56736228V450.53074432c0-23.97575054 19.61444693-43.56736227 43.56736342-43.56736341h783.11649621c23.97575054 0 43.56736227 19.61444693 43.56736227 43.56736341v124.30855509c0 23.95291648-19.61444693 43.56736227-43.56736227 43.56736228z" fill="#71DAFF" p-id="10035"></path><path d="M902.78189056 635.32669155H119.66539435c-33.36054329 0-60.48739214-27.14968291-60.48739214-60.48739214V450.53074432c0-33.36054329 27.14968291-60.48739214 60.48739214-60.48739214h783.11649621c33.36054329 0 60.48739214 27.14968291 60.48739214 60.48739214v124.30855509c0 33.33770923-27.12684885 60.48739214-60.48739214 60.48739214zM119.66539435 423.86057671c-14.70512697 0-26.67016761 11.96504064-26.67016761 26.64733355v124.30855509c0 14.70512697 11.96504064 26.67016761 26.67016761 26.67016761h783.11649621c14.70512697 0 26.67016761-11.96504064 26.67016761-26.67016761v-124.30855509c0-14.70512697-11.96504064-26.64733355-26.67016761-26.64733355H119.66539435z" fill="#173751" p-id="10036"></path><path d="M135.10121017 621.7404325v270.03544689h35.6896165l58.31815736-270.03544689z" fill="#71DAFF" p-id="10037"></path><path d="M170.79082667 908.69590926H135.10121017c-9.33912576 0-16.92002873-7.58090411-16.92002873-16.92002987V621.7404325c0-9.33912576 7.58090411-16.92002873 16.92002873-16.92002873h94.03060793c5.11482653 0 9.9556443 2.30623915 13.17524593 6.30219662a16.99994851 16.99994851 0 0 1 3.37943894 14.2027776L187.34551154 895.33799083a16.95428039 16.95428039 0 0 1-16.55468487 13.35791843z m-18.76958664-33.84005859h5.13766059l51.01126201-236.1953883H152.02124003v236.1953883z" fill="#173751" p-id="10038"></path><path d="M892.89474845 621.7404325v270.03544689H857.20513195l-58.31815851-270.03544689z" fill="#71DAFF" p-id="10039"></path><path d="M892.89474845 908.69590926H857.20513195c-7.96908317 0-14.86496541-5.54867371-16.53185081-13.35791843l-58.31815737-270.0354469c-1.07319979-5.00065621 0.15983843-10.22965305 3.37943893-14.2027776s8.06041827-6.30219662 13.1752448-6.30219662h94.03060907c9.33912576 0 16.92002873 7.58090411 16.92002873 16.92002872v270.0354469c-0.04566813 9.36195982-7.60373817 16.94286279-16.96569685 16.94286393z m-22.0348564-33.84005859h5.13766059V638.66046237h-56.14892259l51.011262 236.1953883z" fill="#173751" p-id="10040"></path><path d="M569.33629383 621.7404325l-29.15907925 270.03544689h-35.6896165l-29.15907811-270.03544689z" fill="#71DAFF" p-id="10041"></path><path d="M540.17721458 908.69590926h-35.71245056c-8.63126983 0-15.89249707-6.50770318-16.82869248-15.09330603l-29.15907925-270.03544689c-0.52518343-4.77231559 1.02753166-9.54463232 4.22429923-13.12957668a16.89491229 16.89491229 0 0 1 12.58156032-5.61717589h94.03060793c4.79514965 0 9.38479389 2.0322304 12.58156032 5.61717589a16.90861227 16.90861227 0 0 1 4.2242981 13.12957668l-29.15907812 270.03544689a16.8423936 16.8423936 0 0 1-16.78302549 15.09330603z m-20.50497423-33.84005859h5.32033309l25.50563043-236.1953883h-56.33159509l25.50563157 236.1953883z" fill="#173751" p-id="10042"></path><path d="M581.41550478 493.18474525h-140.38372465c-9.33912576 0-16.92002873-7.58090411-16.92002987-16.92002987s7.58090411-16.92002873 16.92002987-16.92002873h140.38372465c9.33912576 0 16.92002873 7.58090411 16.92002873 16.92002873s-7.58090411 16.92002873-16.92002873 16.92002987z" fill="#173751" p-id="10043"></path><path d="M116.28595541 406.94054685l404.91616598-174.47495794S752.55669191 133.52566101 852.8666624 133.52566101c51.01126201 0-70.62570894 59.39135829-86.06152477 81.81439261-20.98448953 30.50628779 47.70032526 22.65137493-155.0431835 110.01444124-107.27435605 46.21611235-189.36275627 81.58605198-189.3627574 81.58605199H116.28595541z" fill="#D7F7FF" p-id="10044"></path><path d="M422.39919673 423.86057671H116.28595541c-8.03758421 0-14.95630165-5.64000995-16.57751893-13.49492281s2.51174571-15.77832675 9.88714325-18.95225913l404.91616598-174.47495794c9.61313451-4.11012893 235.73870706-100.33280569 338.35491669-100.33280454 15.75549269 0 25.34579314 5.34316715 28.49689145 15.89249706 5.82268245 19.54594475-15.27597739 33.38337735-57.3591279 60.92123819-15.64132238 10.25248711-39.27456199 25.73397219-43.27051946 31.48815246-1.89522603 2.76291925-1.87239197 3.26526862-1.62121728 7.03288661 1.8495579 28.61106176-10.84617273 44.36655445-160.6603594 108.91840626l-189.38559032 81.60888604c-2.10073259 0.91336135-4.36130361 1.39287666-6.66754276 1.3928778z m-224.09334215-33.8400586h220.57689884l186.16599097-80.21600938c116.4764763-50.18923691 137.98614926-67.33760626 140.45222684-73.09178652 0-0.1826725-0.09133625-1.55271509-0.15983843-2.53457978-0.38817906-5.98252089-1.05036573-15.98383331 7.51240078-28.42838926 7.35256349-10.66350023 24.77494158-22.37736619 52.60964637-40.62177052 5.68567808-3.72194987 12.39888782-8.12892046 18.88375694-12.51305814-105.92714638 14.31694791-294.42220942 94.51012323-296.50010795 95.40065167L198.30585458 390.02051811z" fill="#173751" p-id="10045"></path><path d="M178.44023296 618.40666169v-72.84061184h665.56681899v70.69421113z" fill="#F4DA6E" p-id="10046"></path><path d="M178.44023296 635.32669155c-4.47547278 0-8.76827421-1.78105571-11.94220658-4.93215516a16.97483093 16.97483093 0 0 1-4.97782329-11.9878747v-72.84061184c0-9.33912576 7.58090411-16.92002873 16.92002987-16.92002873h665.56681899c9.33912576 0 16.92002873 7.58090411 16.92002986 16.92002873v70.69421113c0 9.3162917-7.53523598 16.89719467-16.85152768 16.92002987l-665.56681898 2.1464007h-0.06850219z m16.92002873-72.84061184v38.95488512l631.72676153-2.0322304v-36.92265472H195.36026169z" fill="#173751" p-id="10047"></path></svg>