<?xml version="1.0" standalone="no"?><!DOCTYPE svg PUBLIC "-//W3C//DTD SVG 1.1//EN" "http://www.w3.org/Graphics/SVG/1.1/DTD/svg11.dtd"><svg t="1602858471449" class="icon" viewBox="0 0 1278 1024" version="1.1" xmlns="http://www.w3.org/2000/svg" p-id="1252" width="249.609375" height="200" xmlns:xlink="http://www.w3.org/1999/xlink"><defs><style type="text/css"></style></defs><path d="M763.177509 947.878149q-5.28299-8.209984-10.05598-16.675968v-0.508999a316.956381 316.956381 0 0 1-18.584964-39.650922H101.833801a25.77695 25.77695 0 0 1-25.45895-25.458951v-483.709055h1069.249911V479.699063a316.892381 316.892381 0 0 1 39.651923 18.583964h0.509999c5.663989 3.182994 11.263978 6.364988 16.737967 10.05598l2.799995 1.781997c5.664989 3.755993 11.265978 7.573985 16.675967 11.710977v-419.99918A101.833801 101.833801 0 0 0 1120.166812 0H101.833801A101.833801 101.833801 0 0 0 0 101.833801v763.749508A101.833801 101.833801 0 0 0 101.833801 967.418111H776.478483c-4.073992-5.409989-7.955984-11.010978-11.646977-16.675968zM76.374851 101.832801a25.77695 25.77695 0 0 1 25.45895-25.45895h1018.333011a25.77695 25.77695 0 0 1 25.45795 25.45895V305.499403H76.374851z" fill="#ffffff" p-id="1253"></path><path d="M222.696565 189.728629a50.916901 50.916901 0 1 0 101.833801 0 50.916901 50.916901 0 1 0-101.833801 0zM413.634192 189.728629a50.916901 50.916901 0 1 0 101.833801 0 50.916901 50.916901 0 1 0-101.833801 0zM1031.062986 528.960967a247.519517 247.519517 0 1 0 247.518517 247.518516 247.773516 247.773516 0 0 0-247.519517-247.519516z m114.561776 270.430472h-91.649821v91.649821h-45.82491v-91.649821h-91.649821v-45.824911h91.649821v-91.649821h45.82491v91.649821h91.649821z" fill="#ffffff" p-id="1254"></path></svg>